<svg width="1066" height="587" viewBox="0 0 1066 587" fill="none" xmlns="http://www.w3.org/2000/svg">
<path d="M323.243 525.432C281.921 501.746 256.942 450.658 233.564 397.85C210.819 344.899 190.307 290.084 194.248 231.706C197.411 172.831 225.511 109.607 272.728 80.5539C320.724 51.9995 387.984 58.2596 451.996 70.6718C515.376 83.2285 575.361 101.295 614.375 141.06C653.536 181.469 672.21 242.789 674.985 304.364C677.906 366.582 665.559 428.91 630.274 469.434C594.841 509.316 536.324 526.752 478.865 537.185C421.259 546.974 364.08 549.905 323.243 525.432Z" fill="url(#paint0_linear_1_3809)"/>
<path d="M546.797 358.037C543.438 349.661 545.729 339.131 548.459 328.535C551.301 317.991 554.693 307.433 562.139 299.218C569.528 290.839 581.135 284.743 591.567 285.973C602.057 287.369 611.319 296.203 619.375 305.571C627.32 314.885 634.114 324.62 635.24 335.115C636.312 345.723 631.882 357.033 625.059 366.511C618.181 376.103 609.022 383.916 599.015 385.793C589.061 387.558 578.314 383.273 568.548 378.072C558.834 372.757 549.991 366.474 546.797 358.037Z" fill="url(#paint1_linear_1_3809)"/>
<path d="M447.141 253.246C438.887 249.595 433.175 240.459 427.73 230.967C422.401 221.435 417.457 211.508 417.051 200.429C416.489 189.271 420.541 176.803 428.867 170.399C437.351 164.073 450.15 163.93 462.458 165.009C474.649 166.129 486.309 168.353 494.444 175.08C502.619 181.925 507.345 193.114 509.08 204.663C510.855 216.331 509.754 228.32 503.901 236.652C498.009 244.865 487.324 249.302 476.7 252.399C466.037 255.378 455.318 257.055 447.141 253.246Z" fill="url(#paint2_linear_1_3809)"/>
<path d="M337.885 533.776C306.785 515.949 287.984 477.497 270.389 437.752C253.269 397.898 237.831 356.641 240.797 312.704C243.178 268.391 264.327 220.805 299.865 198.939C335.99 177.447 386.613 182.159 434.791 191.501C482.494 200.952 527.642 214.549 557.006 244.479C586.48 274.892 600.535 321.045 602.624 367.39C604.822 414.218 595.529 461.129 568.972 491.629C542.304 521.646 498.261 534.77 455.014 542.622C411.657 549.99 368.621 552.196 337.885 533.776Z" fill="url(#paint3_linear_1_3809)"/>
<path d="M1014.73 91.5013C1016.16 87.8299 1012.29 83.2987 1005.99 81.6767C1001.18 80.4413 993.184 81.3978 992.075 85.1483C991.469 87.1987 994.562 93.2179 1000.82 94.9723C1007.07 96.7267 1013.3 95.1727 1014.73 91.5013Z" fill="white" fill-opacity="0.1"/>
<path d="M1011.51 103.522C1007.99 103.3 1001.71 106.029 1001.74 109.182C1001.76 111.355 1006.06 114.913 1011.43 114.941C1016.8 114.967 1021.18 112.433 1021.2 109.28C1021.22 106.127 1016.87 103.86 1011.51 103.522Z" fill="white" fill-opacity="0.1"/>
<path d="M1058.7 81.4866C1053.3 78.8503 1049.95 80.4274 1046.62 81.7488C1043.51 82.9847 1040 83.1936 1036.68 82.4229C1030.81 81.0587 1024.8 83.1181 1021.53 87.316C1018.27 91.5138 1018.4 97.0164 1022.19 101.066C1024.33 103.353 1025.48 106.178 1025.37 109.097C1025.25 112.217 1024.86 115.453 1029.83 118.63C1035.97 122.551 1044.87 120.724 1049.11 115.278C1050.3 113.744 1051.01 112.061 1051.28 110.353C1051.58 108.505 1052.34 106.756 1053.51 105.237C1054.69 103.729 1056.28 102.446 1058.17 101.491C1059.91 100.609 1061.46 99.3885 1062.65 97.8541C1066.88 92.4093 1065.36 84.7406 1058.7 81.4866Z" fill="white" fill-opacity="0.1"/>
<path d="M1023.43 80.2495C1026.83 77.679 1026.04 72.2074 1021.66 68.0271C1017.28 63.8473 1009.54 63.8261 1007.57 65.1128C1003.96 67.4658 1006.1 74.0817 1009.34 77.3347C1013.6 81.6062 1020.03 82.8199 1023.43 80.2495Z" fill="white" fill-opacity="0.1"/>
<path d="M1045.21 78.2341C1048.61 76.965 1049.61 72.55 1047.45 68.3722C1045.29 64.1949 1039.74 62.2603 1037.38 63.106C1033.96 64.3333 1033.5 70.3154 1035.14 72.9673C1037.63 77.0108 1041.81 79.5032 1045.21 78.2341Z" fill="white" fill-opacity="0.1"/>
<path d="M943.886 82.5482C948.491 83.2958 953.422 79.339 954.53 73.6544C955.373 69.3246 953.155 62.5144 948.497 62.0543C945.952 61.8026 939.128 65.2887 937.854 70.9481C936.581 76.6069 939.281 81.8007 943.886 82.5482Z" fill="white" fill-opacity="0.1"/>
<path d="M923.358 90.5344C927.152 90.1322 929.297 86.055 928.987 81.3632C928.784 78.2853 924.664 73.1999 920.876 73.6484C918.268 73.9575 914.562 78.157 915.247 82.8196C915.933 87.4827 919.564 90.9366 923.358 90.5344Z" fill="white" fill-opacity="0.1"/>
<path d="M957.717 100.374C958.573 95.0994 955.294 90.1635 949.811 87.8952C944.328 85.6274 937.73 86.4776 933.367 90.3015C930.904 92.461 927.661 93.8399 924.136 94.1313C920.369 94.4429 916.425 94.5371 913.27 99.2756C909.377 105.125 912.763 112.598 919.875 115.54C921.88 116.369 923.999 116.765 926.089 116.771C928.35 116.777 930.554 117.206 932.535 118.014C934.508 118.841 936.263 120.051 937.663 121.56C938.956 122.952 940.63 124.126 942.634 124.955C949.747 127.897 958.763 125.555 961.785 119.346C964.234 114.315 961.891 111.62 959.856 108.908C957.953 106.372 957.234 103.354 957.717 100.374Z" fill="white" fill-opacity="0.1"/>
<path d="M973.034 85.4244C977.475 81.0683 976.467 74.3593 974.657 72.8184C971.345 70.0003 963.677 72.7419 960.199 75.9879C955.632 80.2493 955.032 85.9882 958.576 88.5938C962.121 91.1995 968.594 89.7804 973.034 85.4244Z" fill="white" fill-opacity="0.1"/>
<path d="M968.891 97.7774C964.364 100.479 961.925 104.435 963.905 107.213C965.885 109.991 971.328 110.271 976.061 107.838C980.795 105.405 982.378 100.333 981.047 98.4021C979.114 95.6001 971.861 96.0054 968.891 97.7774Z" fill="white" fill-opacity="0.1"/>
<path d="M854.261 64.6127C856.582 63.2687 856.688 59.8185 854.315 57.0167C852.507 54.8824 848.165 52.8039 845.967 54.2879C844.765 55.0993 843.623 59.0328 845.913 61.8839C848.203 64.7351 851.94 65.9568 854.261 64.6127Z" fill="white" fill-opacity="0.1"/>
<path d="M847.387 69.4774C845.762 68.2497 841.479 67.5857 840.101 69.1407C839.153 70.2119 839.686 73.3222 842.306 75.0463C844.927 76.7704 848.188 76.9209 849.591 75.3831C850.994 73.8458 849.863 71.349 847.387 69.4774Z" fill="white" fill-opacity="0.1"/>
<path d="M874.202 69.9922C872.13 69.6061 870.317 68.5897 869.032 67.1565C866.757 64.6182 862.904 63.7136 859.452 64.7315C856.002 65.7494 853.638 68.4875 853.705 71.6771C853.742 73.4783 853.061 75.2302 851.717 76.6241C850.28 78.1142 848.659 79.5757 849.696 82.7164C850.973 86.5927 856.141 88.5309 860.618 87.2104C861.879 86.8384 862.973 86.2413 863.859 85.4907C864.818 84.6782 865.964 84.0646 867.205 83.6916C868.451 83.3306 869.799 83.2088 871.145 83.3417C872.388 83.4645 873.682 83.3573 874.943 82.9853C879.42 81.6648 882.061 77.4241 880.235 73.7094C878.755 70.6995 876.417 70.405 874.202 69.9922Z" fill="white" fill-opacity="0.1"/>
<path d="M863.499 61.8712C866.301 61.695 868.327 58.7618 868.027 55.3197C867.726 51.8776 863.947 49.4055 862.412 49.407C859.603 49.4095 857.732 53.3329 857.884 55.9585C858.084 59.4057 860.699 62.0474 863.499 61.8712Z" fill="white" fill-opacity="0.1"/>
<path d="M875.057 67.8198C877.282 68.2804 879.722 66.4365 880.507 63.7016C881.292 60.9668 879.427 58.252 877.899 57.9158C875.682 57.428 872.818 60.2142 872.448 62.0339C871.885 64.8081 872.832 67.3597 875.057 67.8198Z" fill="white" fill-opacity="0.1"/>
<path d="M755.692 92.7041C758.198 91.1033 758.107 87.2515 755.291 84.2302C753.145 81.9292 748.177 79.8015 745.815 81.5527C744.524 82.5106 743.49 86.9469 746.217 90.0266C748.943 93.1058 753.186 94.3048 755.692 92.7041Z" fill="white" fill-opacity="0.1"/>
<path d="M742.982 104.864C746.008 106.671 749.655 106.697 751.126 104.921C752.597 103.144 751.183 100.41 748.309 98.4311C746.423 97.1328 741.605 96.5801 740.165 98.3742C739.172 99.6105 739.954 103.056 742.982 104.864Z" fill="white" fill-opacity="0.1"/>
<path d="M753.589 106.211C752.077 107.936 750.359 109.636 751.704 113.093C753.365 117.36 759.245 119.296 764.158 117.627C765.542 117.157 766.726 116.443 767.668 115.567C768.688 114.619 769.929 113.884 771.291 113.414C772.66 112.957 774.154 112.762 775.663 112.851C777.056 112.934 778.493 112.757 779.878 112.288C784.791 110.619 787.478 105.773 785.216 101.711C783.382 98.42 780.757 98.1944 778.261 97.8305C775.928 97.4902 773.844 96.4365 772.324 94.8941C769.633 92.1631 765.28 91.3234 761.494 92.6096C757.707 93.8958 755.237 97.0532 755.505 100.607C755.657 102.614 755.004 104.597 753.589 106.211Z" fill="white" fill-opacity="0.1"/>
<path d="M765.823 89.2432C768.936 88.9241 771.019 85.5638 770.474 81.7378C769.93 77.9124 765.565 75.3203 763.852 75.3893C760.721 75.5151 758.873 79.9729 759.202 82.8947C759.634 86.7302 762.71 89.5624 765.823 89.2432Z" fill="white" fill-opacity="0.1"/>
<path d="M779.083 95.37C781.593 95.7863 784.203 93.6233 784.912 90.5386C785.621 87.4544 783.375 84.5081 781.651 84.2005C779.149 83.754 776.125 86.9862 775.822 89.032C775.363 92.1499 776.573 94.9537 779.083 95.37Z" fill="white" fill-opacity="0.1"/>
<path d="M822.156 202.698C826.262 198.97 829.289 191.162 825.132 188.164C822.858 186.525 813.604 186.16 808.071 190.94C802.539 195.72 801.206 202.227 805.096 205.474C808.984 208.721 816.765 207.594 822.156 202.698Z" fill="white" fill-opacity="0.1"/>
<path d="M777.198 190.05C774.318 194.939 775.208 200.272 779.187 201.962C783.165 203.652 788.338 200.881 791.604 196.17C793.747 193.079 793.622 185.899 789.615 184.258C786.854 183.127 780.078 185.161 777.198 190.05Z" fill="white" fill-opacity="0.1"/>
<path d="M806.773 213.906C803.189 208.706 796.156 205.913 789.028 207.223C785.001 207.963 780.815 207.52 777.182 205.871C773.299 204.108 769.41 202.038 762.756 204.895C754.543 208.423 752.142 217.513 756.791 224.259C758.1 226.16 759.851 227.704 761.869 228.854C764.053 230.1 765.861 231.722 767.165 233.591C768.446 235.471 769.225 237.605 769.433 239.832C769.627 241.889 770.355 243.943 771.665 245.843C776.314 252.589 786.821 255.263 794.465 250.909C800.658 247.381 800.437 243.489 800.529 239.749C800.616 236.252 802.211 232.936 804.942 230.317C809.779 225.681 810.355 219.106 806.773 213.906Z" fill="white" fill-opacity="0.1"/>
<path d="M825.87 208.064C818.211 209.686 813.271 214.912 814.721 219.376C816.172 223.841 823.516 226.015 831.123 224.232C838.731 222.449 842.853 215.403 842.272 212.92C841.208 208.377 831.703 206.828 825.87 208.064Z" fill="white" fill-opacity="0.1"/>
<path d="M817.728 233.922C811.293 234.056 805.926 236.549 805.732 240.322C805.538 244.096 810.592 247.35 817.023 247.589C823.453 247.828 828.841 243.787 829.019 241.188C829.277 237.417 821.949 233.834 817.728 233.922Z" fill="white" fill-opacity="0.1"/>
<path d="M655.725 201.91C660.849 202.311 665.741 197.543 666.24 191.234C666.62 186.428 663.344 179.189 658.199 179.106C655.386 179.061 648.368 183.485 647.685 189.782C647.002 196.079 650.601 201.509 655.725 201.91Z" fill="white" fill-opacity="0.1"/>
<path d="M634.327 212.484C638.421 211.702 640.254 207.055 639.329 201.958C638.722 198.614 633.585 193.43 629.504 194.262C626.691 194.835 623.17 199.757 624.501 204.788C625.834 209.821 630.233 213.266 634.327 212.484Z" fill="white" fill-opacity="0.1"/>
<path d="M659.669 248.347C667.807 250.919 677.364 247.547 679.888 240.491C681.935 234.774 679.037 232.041 676.475 229.263C674.08 226.664 672.916 223.431 673.071 220.134C673.346 214.294 669.147 209.198 662.874 207.214C656.6 205.231 649.498 206.756 645.211 211.326C642.789 213.908 639.42 215.707 635.607 216.343C631.529 217.024 627.234 217.482 624.38 222.943C620.858 229.684 625.492 237.543 633.63 240.115C635.923 240.84 638.288 241.081 640.571 240.899C643.042 240.701 645.503 240.97 647.77 241.675C650.027 242.4 652.096 243.563 653.814 245.085C655.401 246.491 657.376 247.622 659.669 248.347Z" fill="white" fill-opacity="0.1"/>
<path d="M672.523 207.188C676.721 209.715 683.614 207.581 687.92 202.421C692.226 197.262 690.286 190.024 688.115 188.504C684.144 185.724 676.11 189.411 672.718 193.271C668.262 198.337 668.325 204.661 672.523 207.188Z" fill="white" fill-opacity="0.1"/>
<path d="M680.675 227.047C683.184 229.903 689.165 229.718 694.031 226.633C698.898 223.548 699.994 217.864 698.298 215.875C695.836 212.988 687.964 214.085 684.941 216.289C680.334 219.649 678.165 224.191 680.675 227.047Z" fill="white" fill-opacity="0.1"/>
<path d="M728.665 327.582C733.524 330.874 742.189 328.817 747.622 322.728C751.761 318.09 754.11 308.935 748.98 305.952C746.176 304.321 735.632 304.832 730.023 310.805C724.413 316.778 723.804 324.289 728.665 327.582Z" fill="white" fill-opacity="0.1"/>
<path d="M694.883 312.887C692.296 318.718 694.046 324.676 698.791 326.194C703.536 327.712 709.017 324.053 712.066 318.385C714.066 314.666 712.928 306.537 708.159 305.077C704.872 304.071 697.471 307.056 694.883 312.887Z" fill="white" fill-opacity="0.1"/>
<path d="M731.748 336.973C726.964 331.436 718.603 328.973 710.702 331.171C706.24 332.413 701.432 332.331 697.085 330.824C692.436 329.213 687.742 327.255 680.592 331.161C671.769 335.982 670.309 346.528 676.515 353.712C678.264 355.736 680.463 357.312 682.91 358.415C685.56 359.608 687.835 361.267 689.573 363.255C691.284 365.26 692.465 367.601 693.011 370.105C693.515 372.418 694.626 374.673 696.374 376.697C702.581 383.881 714.865 385.861 722.928 380.16C729.46 375.541 728.669 371.15 728.255 366.901C727.868 362.926 729.218 359.007 731.95 355.765C736.791 350.023 736.532 342.51 731.748 336.973Z" fill="white" fill-opacity="0.1"/>
<path d="M752.585 328.44C744.127 331.045 739.25 337.465 741.514 342.381C743.779 347.299 752.406 349.029 760.785 346.246C769.163 343.463 772.859 335.063 771.855 332.305C770.018 327.26 759.027 326.456 752.585 328.44Z" fill="white" fill-opacity="0.1"/>
<path d="M746.951 358.572C739.674 359.367 733.935 362.73 734.238 367.028C734.541 371.327 740.723 374.51 748.049 374.137C755.373 373.765 760.92 368.644 760.761 365.68C760.53 361.379 751.725 358.05 746.951 358.572Z" fill="white" fill-opacity="0.1"/>
<path d="M660.78 409.564C659.233 410.246 656.954 414.416 658.776 418.015C660.597 421.613 664.447 423.664 667.375 422.596C670.304 421.527 671.306 417.703 669.38 414.144C667.913 411.433 663.609 408.316 660.78 409.564Z" fill="white" fill-opacity="0.1"/>
<path d="M658.466 426.741C656.971 425.074 652.37 423.544 650.439 425.021C649.108 426.039 648.905 429.602 651.383 432.006C653.86 434.41 657.454 435.18 659.41 433.726C661.365 432.273 660.744 429.283 658.466 426.741Z" fill="white" fill-opacity="0.1"/>
<path d="M688.191 432.266C685.982 431.453 684.223 429.987 683.159 428.153C681.275 424.906 677.215 423.187 673.11 423.683C669.006 424.18 665.671 426.793 664.93 430.358C664.512 432.371 663.304 434.196 661.45 435.501C659.468 436.895 657.29 438.224 657.639 441.913C658.07 446.466 663.328 449.579 668.653 448.935C670.153 448.753 671.526 448.29 672.703 447.618C673.98 446.89 675.413 446.418 676.892 446.232C678.372 446.06 679.904 446.173 681.369 446.57C682.721 446.936 684.191 447.055 685.691 446.874C691.016 446.229 695.042 441.994 693.958 437.519C693.081 433.895 690.553 433.136 688.191 432.266Z" fill="white" fill-opacity="0.1"/>
<path d="M678.357 421.247C681.521 421.567 684.529 418.674 685.076 414.785C685.623 410.895 682.047 407.444 680.336 407.162C677.207 406.646 674.119 410.67 673.616 413.623C672.956 417.5 675.192 420.926 678.357 421.247Z" fill="white" fill-opacity="0.1"/>
<path d="M695.416 419.499C693.071 418.546 689.168 421.121 688.291 423.079C686.953 426.065 687.355 429.081 689.714 430.005C692.075 430.929 695.266 429.326 696.839 426.425C698.414 423.523 697.031 420.156 695.416 419.499Z" fill="white" fill-opacity="0.1"/>
<path d="M529.903 463.787C530.641 459.563 525.427 455.253 518.206 454.5C512.707 453.926 504.215 456.249 503.842 460.507C503.639 462.836 508.342 468.889 515.538 469.794C522.735 470.7 529.166 468.01 529.903 463.787Z" fill="white" fill-opacity="0.1"/>
<path d="M529.078 477.381C525.203 477.704 518.973 481.68 519.708 485.106C520.215 487.466 525.678 490.649 531.53 489.817C537.383 488.985 541.577 485.526 540.9 482.092C540.222 478.658 534.983 476.89 529.078 477.381Z" fill="white" fill-opacity="0.1"/>
<path d="M575.528 445.837C569.071 443.834 565.776 446.087 562.447 448.059C559.332 449.903 555.556 450.694 551.776 450.388C545.083 449.845 539.002 453.05 536.386 458.14C533.77 463.23 535.138 469.196 540.158 472.995C542.993 475.14 544.877 478.029 545.403 481.222C545.965 484.637 546.259 488.221 552.379 490.88C559.932 494.161 569.21 490.745 572.604 484.142C573.56 482.281 573.965 480.334 573.878 478.433C573.784 476.375 574.227 474.35 575.158 472.511C576.113 470.68 577.56 469.029 579.401 467.687C581.102 466.448 582.506 464.873 583.463 463.012C586.856 456.409 583.497 448.309 575.528 445.837Z" fill="white" fill-opacity="0.1"/>
<path d="M520.899 449.236C526.479 453.2 533.746 453.489 536.876 450.148C540.004 446.805 537.924 440.979 532.23 437.134C526.535 433.289 518.118 434.506 516.253 436.222C512.847 439.361 516.649 446.216 520.899 449.236Z" fill="white" fill-opacity="0.1"/>
<path d="M560.13 444.462C563.546 442.536 563.655 437.571 560.374 433.373C557.092 429.175 550.623 427.96 548.247 429.258C544.798 431.142 545.634 437.724 548.003 440.347C551.614 444.346 556.714 446.388 560.13 444.462Z" fill="white" fill-opacity="0.1"/>
<path d="M431.971 478.238C435.522 478.125 438.373 474.491 438.055 470.132C437.811 466.811 434.809 462.101 431.278 462.432C429.345 462.614 425.003 466.174 425.194 470.538C425.386 474.903 428.419 478.35 431.971 478.238Z" fill="white" fill-opacity="0.1"/>
<path d="M418.416 487.096C421.14 486.251 421.908 482.93 420.74 479.509C419.975 477.264 415.913 474.102 413.205 474.98C411.34 475.585 409.442 479.222 410.881 482.567C412.321 485.913 415.695 487.94 418.416 487.096Z" fill="white" fill-opacity="0.1"/>
<path d="M449.051 495.403C447.138 493.804 446.002 491.678 445.763 489.408C445.34 485.387 441.929 482.214 437.426 481.329C432.922 480.445 428.218 482.025 425.76 485.48C424.371 487.431 422.252 488.918 419.707 489.641C416.985 490.416 414.092 491.054 412.71 495.01C411.003 499.893 414.999 504.925 420.843 506.073C422.489 506.396 424.135 506.382 425.678 506.085C427.35 505.764 429.065 505.762 430.691 506.073C432.312 506.399 433.852 507.04 435.188 507.952C436.422 508.795 437.893 509.42 439.539 509.744C445.382 510.891 451.575 507.859 452.566 502.836C453.366 498.766 451.096 497.114 449.051 495.403Z" fill="white" fill-opacity="0.1"/>
<path d="M444.032 480.583C447.172 481.997 451.67 480.014 454.079 476.155C456.487 472.296 454.401 467.486 452.755 466.609C449.744 465.004 444.628 468.137 442.708 471.036C440.187 474.843 440.892 479.169 444.032 480.583Z" fill="white" fill-opacity="0.1"/>
<path d="M453.504 485.878C450.699 488.527 449.69 491.801 451.709 493.568C453.727 495.334 457.803 494.755 460.813 492.275C463.823 489.795 463.978 485.819 462.608 484.585C460.62 482.794 455.343 484.14 453.504 485.878Z" fill="white" fill-opacity="0.1"/>
<path d="M344.217 561.268C347.167 560.76 348.96 557.39 347.989 553.784C347.249 551.038 343.978 547.452 341.081 548.142C339.495 548.519 336.442 552 337.308 555.625C338.174 559.25 341.268 561.777 344.217 561.268Z" fill="white" fill-opacity="0.1"/>
<path d="M334.323 570.253C336.461 569.23 336.566 566.364 335.036 563.641C334.034 561.855 330.128 559.687 328.007 560.736C326.545 561.46 325.549 564.72 327.293 567.348C329.038 569.976 332.185 571.277 334.323 570.253Z" fill="white" fill-opacity="0.1"/>
<path d="M361.271 573.62C359.414 572.506 358.121 570.863 357.554 568.993C356.55 565.683 353.186 563.429 349.28 563.215C345.373 563.002 341.698 564.872 340.202 568.045C339.358 569.838 337.828 571.328 335.817 572.229C333.668 573.194 331.353 574.065 330.838 577.532C330.202 581.812 334.357 585.551 339.425 585.828C340.852 585.906 342.225 585.702 343.467 585.274C344.813 584.81 346.245 584.609 347.654 584.679C349.063 584.763 350.452 585.118 351.716 585.725C352.884 586.285 354.214 586.636 355.642 586.714C360.711 586.991 365.395 583.735 365.41 579.421C365.421 575.926 363.257 574.811 361.271 573.62Z" fill="white" fill-opacity="0.1"/>
<path d="M354.682 561.821C357.535 562.636 360.973 560.455 362.361 556.949C363.75 553.443 361.228 549.666 359.711 549.126C356.935 548.136 353.166 551.351 352.031 553.998C350.541 557.473 351.83 561.006 354.682 561.821Z" fill="white" fill-opacity="0.1"/>
<path d="M363.445 565.143C361.531 567.683 361.216 570.537 363.189 571.778C365.161 573.019 368.474 572.06 370.588 569.635C372.703 567.211 372.189 563.871 370.844 563C368.893 561.735 364.701 563.475 363.445 565.143Z" fill="white" fill-opacity="0.1"/>
<path d="M283.846 470.535C287.491 467.325 290.256 460.54 286.671 457.875C284.712 456.417 276.636 455.994 271.729 460.106C266.821 464.219 265.555 469.887 268.901 472.767C272.248 475.646 279.06 474.75 283.846 470.535Z" fill="white" fill-opacity="0.1"/>
<path d="M246.298 469.407C249.746 470.927 254.308 468.565 257.234 464.488C259.153 461.813 259.156 455.54 255.683 454.061C253.29 453.042 247.339 454.742 244.747 458.98C242.155 463.218 242.85 467.886 246.298 469.407Z" fill="white" fill-opacity="0.1"/>
<path d="M270.227 480.149C267.179 475.567 261.081 473.048 254.833 474.112C251.305 474.712 247.656 474.279 244.509 472.798C241.145 471.213 237.782 469.362 231.924 471.783C224.696 474.771 222.457 482.683 226.412 488.627C227.525 490.302 229.031 491.671 230.775 492.698C232.663 493.811 234.216 495.249 235.326 496.895C236.414 498.552 237.063 500.425 237.21 502.372C237.347 504.171 237.95 505.973 239.065 507.647C243.02 513.592 252.155 516.046 258.899 512.329C264.363 509.318 264.231 505.916 264.369 502.651C264.499 499.597 265.945 496.719 268.371 494.463C272.669 490.467 273.276 484.732 270.227 480.149Z" fill="white" fill-opacity="0.1"/>
<path d="M287.009 475.263C280.295 476.593 275.897 481.102 277.095 485.018C278.292 488.933 284.672 490.916 291.344 489.444C298.017 487.972 301.727 481.865 301.258 479.689C300.4 475.709 292.122 474.25 287.009 475.263Z" fill="white" fill-opacity="0.1"/>
<path d="M279.484 497.755C273.862 497.799 269.136 499.915 268.907 503.209C268.678 506.503 273.043 509.401 278.656 509.683C284.268 509.964 289.037 506.496 289.233 504.228C289.518 500.937 283.173 497.725 279.484 497.755Z" fill="white" fill-opacity="0.1"/>
<path d="M180.059 479.495C182.814 481.119 187.389 479.749 190.057 476.306C192.089 473.684 192.967 468.686 190.08 467.236C188.502 466.444 182.849 467.04 180.082 470.425C177.315 473.81 177.304 477.871 180.059 479.495Z" fill="white" fill-opacity="0.1"/>
<path d="M163.911 479.656C166.53 480.329 169.326 478.193 170.727 475.05C171.647 472.988 170.692 468.648 168.064 468.007C166.252 467.566 162.395 469.397 161.249 472.614C160.102 475.83 161.294 478.984 163.911 479.656Z" fill="white" fill-opacity="0.1"/>
<path d="M170.543 481.974C168.194 482.778 165.604 482.879 163.2 482.201C160.63 481.475 158.022 480.564 154.338 482.884C149.793 485.747 149.452 491.467 153.095 495.145C154.122 496.181 155.372 496.962 156.735 497.481C158.211 498.043 159.505 498.866 160.525 499.883C161.53 500.91 162.265 502.134 162.664 503.465C163.033 504.694 163.725 505.874 164.752 506.91C168.395 510.588 175.09 511.28 179.188 507.967C182.509 505.282 181.899 502.943 181.496 500.668C181.121 498.541 181.681 496.391 183.016 494.562C185.379 491.325 184.923 487.29 182.115 484.455C179.306 481.621 174.703 480.55 170.543 481.974Z" fill="white" fill-opacity="0.1"/>
<path d="M192.966 479.23C188.524 480.889 186.169 484.492 187.595 487.07C189.021 489.647 193.737 490.315 198.129 488.563C202.521 486.811 204.156 482.177 203.499 480.723C202.298 478.065 196.348 477.966 192.966 479.23Z" fill="white" fill-opacity="0.1"/>
<path d="M191.2 495.618C187.317 496.267 184.37 498.252 184.715 500.555C185.058 502.859 188.52 504.384 192.446 503.961C196.373 503.538 199.142 500.614 198.932 499.024C198.627 496.715 193.747 495.192 191.2 495.618Z" fill="white" fill-opacity="0.1"/>
<path d="M40.2583 516.446C44.0769 518.305 48.3986 517.995 49.9107 515.755C51.4228 513.514 49.6066 510.11 45.7354 508.332C42.787 506.978 37.4001 506.695 36.0842 509.024C35.3646 510.297 36.441 514.588 40.2583 516.446Z" fill="white" fill-opacity="0.1"/>
<path d="M45.9032 523.257C43.6365 522.713 39.0936 523.785 38.6177 525.852C38.2893 527.277 40.5394 530.094 44.052 530.721C47.5646 531.35 50.826 530.188 51.3375 528.126C51.8479 526.066 49.3571 524.087 45.9032 523.257Z" fill="white" fill-opacity="0.1"/>
<path d="M72.3196 512.996C70.0867 513.451 67.7542 513.189 65.7051 512.308C62.0757 510.748 57.8179 511.414 55.0219 513.79C52.2259 516.167 51.4464 519.784 53.2858 522.864C54.3243 524.604 54.6354 526.584 54.102 528.482C53.5306 530.511 52.7665 532.584 55.5216 535.229C58.9234 538.493 65.0359 538.308 68.6641 535.224C69.6854 534.355 70.4192 533.335 70.8644 532.248C71.3469 531.071 72.1216 530.013 73.1246 529.152C74.1382 528.3 75.3829 527.641 76.7682 527.23C78.0468 526.851 79.2483 526.227 80.2708 525.358C83.8984 522.275 84.1106 517.083 80.2648 514.196C77.1493 511.858 74.7084 512.51 72.3196 512.996Z" fill="white" fill-opacity="0.1"/>
<path d="M49.3827 497.671C46.6477 498.801 47.0075 503.374 48.6175 505.871C50.7306 509.15 54.7483 510.674 57.3783 509.379C60.0096 508.083 60.3522 504.411 58.1436 501.179C55.9362 497.946 50.8782 497.054 49.3827 497.671Z" fill="white" fill-opacity="0.1"/>
<path d="M69.2155 499.745C66.7834 500.159 65.5434 504.023 66.196 505.944C67.1912 508.873 69.5338 510.979 71.9575 510.535C74.3813 510.09 75.7334 507.314 74.9758 504.335C74.2195 501.355 70.8906 499.459 69.2155 499.745Z" fill="white" fill-opacity="0.1"/>
<path d="M29.2403 347.691C34.0546 346.353 36.2816 340.421 33.8294 334.554C31.9605 330.085 25.6702 324.632 20.9827 326.264C18.4202 327.157 14.1139 333.484 16.3948 339.401C18.6739 345.318 24.426 349.029 29.2403 347.691Z" fill="white" fill-opacity="0.1"/>
<path d="M14.7606 364.351C18.1002 362.286 17.6177 357.478 14.4364 353.179C12.3487 350.358 5.32163 347.38 2.01763 349.486C-0.259726 350.937 -1.1779 356.553 2.34068 360.658C5.86044 364.763 11.4204 366.417 14.7606 364.351Z" fill="white" fill-opacity="0.1"/>
<path d="M47.3889 387.336C49.4695 388.079 51.7747 388.446 54.1801 388.34C62.7175 387.963 69.8003 381.744 68.8353 374.531C68.0535 368.686 64.178 367.179 60.5854 365.518C57.2245 363.964 54.6851 361.43 53.3082 358.399C50.869 353.031 44.7293 349.82 38.1479 350.11C31.5672 350.4 25.8519 354.134 24.0802 359.687C23.0802 362.824 20.8621 365.567 17.7099 367.408C14.3383 369.376 10.6686 371.216 10.6022 377.098C10.5222 384.358 18.3257 389.921 26.8631 389.544C29.2691 389.438 31.5168 388.871 33.496 387.949C35.6388 386.951 37.9861 386.377 40.3577 386.261C42.7305 386.167 45.1365 386.532 47.3889 387.336Z" fill="white" fill-opacity="0.1"/>
<path d="M46.8404 346.883C51.7964 347.773 57.0434 343.556 58.5603 337.465C60.0765 331.374 54.9937 325.478 52.3322 324.825C47.4657 323.631 41.9034 329.629 40.6123 334.243C38.9177 340.3 41.8844 345.993 46.8404 346.883Z" fill="white" fill-opacity="0.1"/>
<path d="M63.3644 362.121C66.947 363.869 72.2646 361.716 75.2426 357.313C78.2206 352.911 76.5952 347.411 74.1478 346.177C70.5948 344.386 63.9862 347.99 62.2684 350.984C59.6514 355.55 59.7818 360.374 63.3644 362.121Z" fill="white" fill-opacity="0.1"/>
<defs>
  <linearGradient id="paint0_linear_1_3809" x1="610.355" y1="-2.99999" x2="229.922" y2="562.9" gradientUnits="userSpaceOnUse">
    <stop stop-color="#8B2DF7"/>
    <stop offset="1" stop-color="#A14FFF"/>
  </linearGradient>
  <linearGradient id="paint1_linear_1_3809" x1="651.571" y1="313.229" x2="528.522" y2="352.64" gradientUnits="userSpaceOnUse">
    <stop stop-color="#8B2DF7"/>
    <stop offset="1" stop-color="#A14FFF"/>
  </linearGradient>
  <linearGradient id="paint2_linear_1_3809" x1="490.852" y1="148.009" x2="430.291" y2="262.144" gradientUnits="userSpaceOnUse">
    <stop stop-color="#8B2DF7"/>
    <stop offset="1" stop-color="#A14FFF"/>
  </linearGradient>
  <linearGradient id="paint3_linear_1_3809" x1="553.98" y1="136.052" x2="267.647" y2="561.976" gradientUnits="userSpaceOnUse">
    <stop stop-color="#8B2DF7"/>
    <stop offset="1" stop-color="#A14FFF"/>
  </linearGradient>
</defs>

</svg>
